<?xml version="1.0" standalone="no"?>
<!DOCTYPE svg PUBLIC "-//W3C//DTD SVG 20010904//EN"
 "http://www.w3.org/TR/2001/REC-SVG-20010904/DTD/svg10.dtd">
<svg version="1.0" xmlns="http://www.w3.org/2000/svg"
 width="321.000000pt" height="321.000000pt" viewBox="0 0 321.000000 321.000000"
 preserveAspectRatio="xMidYMid meet">
<metadata>
Created by potrace 1.11, written by Peter Selinger 2001-2013
</metadata>
<g transform="translate(0.000000,321.000000) scale(0.100000,-0.100000)"
fill="#000000" stroke="none">
<path d="M1947 2424 c-1 -1 -51 -5 -112 -8 -199 -12 -392 -24 -490 -31 -63 -5
-159 -11 -310 -20 -49 -3 -121 -8 -160 -10 -158 -11 -227 -16 -301 -20 -83 -5
-153 -9 -324 -21 -58 -4 -110 -7 -117 -7 -27 -1 -33 -62 -28 -306 3 -135 8
-293 11 -351 3 -58 6 -112 6 -121 -1 -13 62 -100 142 -195 8 -11 81 -102 162
-204 80 -102 156 -196 168 -210 11 -14 37 -45 56 -70 45 -59 48 -60 95 -55 22
3 60 7 85 10 25 3 67 8 95 11 27 2 61 7 75 9 14 3 54 7 90 11 36 3 74 8 85 10
11 3 43 7 71 10 28 2 62 7 75 9 13 3 53 7 89 10 36 3 76 8 90 11 14 2 48 7 75
9 28 3 61 7 75 10 14 2 57 7 95 11 39 3 72 8 75 9 3 2 37 6 75 10 39 4 78 9
87 10 9 2 48 7 85 10 37 4 75 9 84 10 9 2 40 6 70 10 80 9 120 14 164 19 22 3
60 8 85 10 25 3 65 8 90 11 25 3 61 8 80 10 19 2 55 7 80 10 25 3 61 7 80 10
19 2 60 7 90 11 30 4 59 8 63 8 20 2 34 39 31 83 -2 31 1 50 11 57 7 6 16 27
19 46 7 42 14 83 22 130 4 19 8 44 10 55 2 11 5 36 9 55 3 19 16 94 28 165 28
158 27 205 -7 249 -19 26 -91 72 -126 81 -3 1 -176 86 -385 189 -209 103 -411
203 -450 222 -54 26 -81 33 -118 31 -27 -1 -49 -2 -50 -3z"/>
</g>
</svg>
